<svg id="e51o40VL3Cg1" xmlns="http://www.w3.org/2000/svg" xmlns:xlink="http://www.w3.org/1999/xlink" viewBox="0 0 300 300" shape-rendering="geometricPrecision" text-rendering="geometricPrecision" project-id="3214870ca1cf44e389f9c10c1ba9dc21" export-id="c47db9c0db574904b787ef4267be02b0" cached="false"><g transform="translate(-4.350105 30.885563)"><polygon points="0,-30 25.980762,15 -25.980762,15 0,-30" transform="translate(150 149.114435)" stroke="#fff" stroke-width="2"/><polygon points="0,-30 25.980762,15 -25.980762,15 0,-30" transform="matrix(1 0 0-1 150 89.114435)" stroke="#fff" stroke-width="2"/><polygon points="0,-30 25.980762,15 -25.980762,15 0,-30" transform="matrix(1 0 0-1 175.980762 134.114435)" stroke="#fff" stroke-width="2"/><polygon points="0,-30 25.980762,15 -25.980762,15 0,-30" transform="translate(175.980762 104.114435)" stroke="#fff" stroke-width="2"/><polygon points="0,-30 25.980762,15 -25.980762,15 0,-30" transform="matrix(-1 0 0 1 124.019238 104.114435)" stroke="#fff" stroke-width="2"/><polygon points="0,-30 25.980762,15 -25.980762,15 0,-30" transform="matrix(-1 0 0-1 124.019238 134.114435)" stroke="#fff" stroke-width="2"/></g><path d="M50,250v-200h200v200h-200Zm100-60c22.09139,0,40-17.90861,40-40s-17.90861-40-40-40-40,17.90861-40,40s17.90861,40,40,40Z" transform="translate(-4.350105-.000002)" fill="#fff" stroke-width="0"/></svg>
